<?xml version="1.0" encoding="utf-8"?>
<!-- Generator: Adobe Illustrator 25.0.1, SVG Export Plug-In . SVG Version: 6.00 Build 0)  -->
<svg version="1.1" id="Layer_1" xmlns="http://www.w3.org/2000/svg" xmlns:xlink="http://www.w3.org/1999/xlink" x="0px" y="0px"
	 viewBox="0 0 576.2 233.7" style="fill: #d92727; enable-background:new 0 0 576.2 233.7;" xml:space="preserve">
<g>
	<path d="M477.9,233.7c-0.1-30.1-0.1-60.3-0.3-90.4c-0.1-18.1-0.4-36.2-0.5-54.2c0-1.2,0.2-2.4,0.4-4.1c12.2,0,24.1,0,36.2,0
		c0.4,1.1,0.9,2.3,1.5,3.8c1.3-0.5,2.7-0.9,4-1.6c12.4-6.1,24.8-5.2,37,0.3c8.4,3.8,14.3,10.4,16.5,19.4c1.8,7.3,2.8,14.8,3.3,22.2
		c0.5,8.3,0.3,16.6-0.1,24.9c-0.3,5.7-1,11.5-2.2,17.1c-3.8,18.3-17.2,26.5-34.6,27.8c-8.1,0.6-12.4-0.6-23-5.2
		c-0.2,2-0.5,3.8-0.5,5.6c-0.1,9,0.1,18.1-0.1,27.1c0,2.4-0.8,4.8-1.3,7.2C502,233.7,490,233.7,477.9,233.7z M526.5,118
		c-7.7,2.4-9.4,2.9-9.8,8.6c-0.8,9.6-0.9,19.4,0,29c0.6,6.4,4.7,8.8,10.3,8.6c5.6-0.2,8.7-3.1,9.7-9.5c1.4-9,1.5-17.9,0-26.9
		C535.7,122.4,533.3,118.5,526.5,118z"/>
	<path d="M438.7,0c8.3,14.6,16.6,29.1,24.8,43.7c1,1.7,2,3.4,3.3,5.7c-2.9,0.4-5.3,0.7-8.5,1.1c-0.7,16.5,0,33.3-0.4,50.8
		c-8.1-4.4-13.2-11.4-20.7-15.7c-6.4,5.1-12.5,10-19.7,15.7c0-17.5,0-33.7,0-50.6c-3.3-0.4-6.2-0.7-9.7-1.1c0.9-2,1.5-3.7,2.4-5.3
		c7.5-13,15.1-26,22.7-39c1-1.7,1.8-3.6,2.6-5.3C436.7,0,437.7,0,438.7,0z"/>
	<path d="M186.9,233.7c-0.3-2.5-0.9-4.9-0.9-7.4c-0.1-45.4-0.1-90.8-0.1-136.3c0-1.5,0.2-2.9,0.3-4.3c5.6-1.5,26.9-1.8,36.1-0.5
		c0.4,1.3,0.8,2.7,1.2,4.1c0.5-0.1,1.1,0,1.4-0.2c10.2-6.4,21.4-7.1,32.6-3.9c18.3,5.2,24.5,17.2,25.6,33.1
		c1,15.2,0.9,30.6,0.1,45.9c-1.5,26.5-27,41.9-52.2,32.2c-2.1-0.8-4.1-1.8-7-3c-0.3,13.7-0.6,27.1-0.9,40.4
		C211,233.7,198.9,233.7,186.9,233.7z M192.1,89.6c-1.5,7.2-1.4,131.9,0.1,137.7c8.7,0,17.3,0,26.8,0c0-15,0-29.5,0-43.9
		c5.4,3.3,10,7.2,15.3,9c22.4,7.5,42.8-5.9,44.4-29.5c0.9-14.3,1-28.7-0.1-42.9c-1-13.8-4.7-25.2-22.6-30c-12.5-3.3-24.5-2.3-34,8
		c-0.8,0.9-1.8,1.6-3.3,2.8c-0.3-4.1-0.6-7.4-1-11.2C208.8,89.6,200.4,89.6,192.1,89.6z"/>
	<path d="M344.3,49.7c13.6,0,26.4,0,40.1,0c0.1,2.7,0.3,5.3,0.3,8c-0.1,27.4-0.1,54.8-0.2,82.2c0,2.5-0.1,5,0.1,7.5
		c0.9,9.4,7.2,15.4,16.3,15.4c9.4,0,16.1-6.1,16.7-15.8c0.4-6.5,0.1-13.1,0.1-19.6c0-6.3,0-12.5,0-19.2c6.5-5.4,13.1-10.8,19.9-16.4
		c7,5.7,13.8,11.2,20.9,17c-0.5,14.8-0.5,29.3-1.5,43.8c-1.5,20.5-17.1,39.2-41.6,44.8c-14.1,3.2-28,2-41.1-4.3
		c-17-8.3-27.4-21.8-29.1-40.8c-1.1-12.5-1-25.1-1.1-37.6c-0.2-19.8,0-39.7,0-59.5C344,53.6,344.2,52.1,344.3,49.7z"/>
	<path d="M0,197.4C0,148,0,99.3,0,50.1c2-0.2,3.9-0.6,5.8-0.6c16.6-0.1,33.2-0.1,49.7,0c11.5,0.1,22.5,2.3,32.2,8.8
		c13.7,9.1,21.4,22.1,22.2,38.3c0.8,17.3,0.7,34.6,0.2,51.9c-0.6,25.4-19.3,48.6-52.4,49.2c-17.8,0.4-35.7,0.1-53.5,0.1
		C3.2,197.8,1.9,197.6,0,197.4z M4.7,54.7c0,46.5,0,91.9,0,137c0.9,0.4,1.3,0.8,1.7,0.8c17.3,0,34.7,0.8,52-0.1
		c29.1-1.4,46.5-19.9,47.1-49.1c0.2-13.3,0.2-26.6,0-39.9c-0.2-14.1-4.5-26.6-15.2-36.4C80.2,57.9,67.9,55,54.8,54.7
		c-12.8-0.2-25.6-0.1-38.4-0.1C12.7,54.7,8.9,54.7,4.7,54.7z"/>
	<path d="M165.6,197.5c-12.5,0-24.4,0-36.4,0c-1.4-5.3-1.8-97.6-0.4-108.3c12.1,0,24.2,0,36.8,0
		C165.6,125.1,165.6,160.9,165.6,197.5z M160.4,192.3c0-32.8,0-65.3,0-98c-9.1,0-17.8,0-26.8,0c0,32.8,0,65.3,0,98
		C142.8,192.3,151.5,192.3,160.4,192.3z"/>
	<path d="M128.1,78.4c0-10.3,0-19.9,0-30.2c12.6,0,24.7,0,36.8,0c1.6,5.3,1.9,21.7,0.4,30.2C153.3,78.4,141.1,78.4,128.1,78.4z
		 M160.1,72.9c0-6.8,0-12.7,0-18.5c-9.1,0-17.5,0-26,0c0,6.4,0,12.3,0,18.5C143,72.9,151.4,72.9,160.1,72.9z"/>
	<path d="M218.4,141c0.5-5.1,0.8-10.1,1.7-15c1.5-8.6,6.6-12.8,15-12.9c8.3,0,13.5,4.3,15.1,12.8c1.9,10.2,1.9,20.5-0.1,30.7
		c-1.6,8.5-6.8,12.5-15.3,12.4c-8.3-0.1-13.3-4.4-14.7-13.1C219.2,151,218.9,146,218.4,141z M246.2,141.8c-0.2-4.4-0.4-8.4-0.6-12.4
		c-0.1-1-0.2-2-0.5-3c-1.5-5.6-4.9-8.4-10.1-8.4c-5.1,0-9.5,2.9-9.9,8.4c-0.7,9.9-0.8,20,0.1,29.9c0.6,6.2,6.4,9.1,12.4,7.7
		c4.9-1.1,7-4.8,7.6-9.2C246,150.4,246,145.9,246.2,141.8z"/>
	<path d="M34.6,81.3c8.3,0,16.1-0.7,23.7,0.2c8.5,1,14.1,6.4,15.9,14.9c1,5.1,1.4,10.4,1.4,15.7c0.1,10.8,0,21.6-0.4,32.4
		c-0.6,14.2-8.3,21.6-22.4,22c-6,0.2-11.9,0-18.2,0C34.6,137.9,34.6,110.1,34.6,81.3z M39.4,86.5c0.1,25.1-0.2,49.8,0.2,74.4
		c6.2,0,11.5,0.5,16.7-0.1c7-0.8,12-5.4,12.8-11.9c2.1-16.7,2.2-33.5-0.1-50.3c-0.8-6-4.5-10.1-10.4-11.6
		C52.5,85.5,46.4,85.5,39.4,86.5z"/>
</g>
</svg>
