<?xml version="1.0" encoding="utf-8"?>
<!-- Generator: Adobe Illustrator 25.0.1, SVG Export Plug-In . SVG Version: 6.00 Build 0)  -->
<svg version="1.1" id="Layer_1" xmlns="http://www.w3.org/2000/svg" xmlns:xlink="http://www.w3.org/1999/xlink" x="0px" y="0px"
	 viewBox="0 0 542.7 156.7" style="fill: #006738; enable-background:new 0 0 542.7 156.7;" xml:space="preserve">
<path d="M542.7,109c-0.6,2.7-1.3,5.4-1.9,8.1c-2.1,9.3-10,16-20.9,16.9c-3,0.2-6,0.3-9-0.2c-2.9-0.5-5.6-1.8-8.9-2.9
	c0,8.8,0,17.2,0,25.9c-8.6,0-16.6,0-25,0c0-32.9,0-65.5,0-98.6c8.1,0,16,0,24.1,0c0.3,0.8,0.6,1.7,1,2.8c6.9-4.3,14.4-5,22.1-3
	c10.4,2.7,16.3,9.7,17.6,20.4c0.1,1.3,0.6,2.5,1,3.7C542.7,91,542.7,100,542.7,109z M501.7,95.5c0.3,3.3,0.5,6.6,1.1,9.9
	c0.7,3.8,2.8,5.5,6.4,5.6c4.1,0.1,6.4-1.4,7.2-5.3c1.3-6.7,1.3-13.5,0-20.3c-0.7-3.9-3.3-5.6-7.1-5.4c-3.5,0.1-5.8,1.9-6.5,5.7
	C502.2,88.9,502.1,92.2,501.7,95.5z"/>
<path d="M450.7,0c2.7,4.9,5.2,9.9,8,14.8c3.6,6.3,7.3,12.6,11.2,19.3c-2.3,0.3-4,0.5-6.2,0.8c0,11,0,21.9,0,34c-5-4-9.2-7.4-13.7-11
	c-4.3,3.4-8.5,6.7-13.4,10.6c0-11.7,0-22.4,0-33.5c-2.3-0.3-4.4-0.6-6.9-0.9c4-6.8,7.7-13.3,11.4-19.7c2.1-3.6,4.2-7.1,6.3-10.8
	c0.6-1.1,0.9-2.4,1.3-3.6C449.4,0,450,0,450.7,0z"/>
<path d="M436.6,73.8c4.5-3.7,8.7-7.2,13.3-11c4,3.3,8,6.4,11.8,9.8c0.9,0.8,1.8,2.3,1.8,3.4c0,9.6,0.6,19.4-0.7,28.9
	c-2.3,16-15,27.4-31.1,29.2c-10.5,1.2-20.6-0.1-29.5-6.5c-8.9-6.4-14.4-15.1-14.6-26c-0.4-21.8-0.2-43.6-0.2-65.4
	c0-0.5,0.2-0.9,0.4-1.7c8.6,0,17.2,0,26.4,0c0.1,1.7,0.2,3.4,0.2,5.2c0,18.3,0,36.6,0,55c0,2,0,4,0.2,6c0.7,5.5,4.1,8.8,9.4,9.4
	c5.5,0.6,10-2.2,11.6-7.4c0.6-2,0.8-4.2,0.9-6.4C436.7,88.8,436.6,81.4,436.6,73.8z"/>
<g>
	<path d="M40.3,136.4C15.1,136.4,0,119.8,0,92V78.7c0-29.5,14.7-46.4,40.3-46.4c20.9,0,34.6,12.1,37.8,33.1l0.3,2.3H52.2l-0.3-1.7
		c-0.4-2.4-2.4-10.3-11.6-10.3c-5.6,0-12.9,2.2-12.9,21V92c0,18.8,7.4,21,12.9,21c6.5,0,9.9-2.9,11.1-9.9H38.8V79.5h39.4V92
		C78.1,120.6,64.7,136.4,40.3,136.4z M40.3,36.3C16.9,36.3,4,51.4,4,78.7V92c0,25.7,13.2,40.4,36.3,40.4c22.1,0,33.8-14,33.8-40.4
		v-8.4H42.8V99h13.2l-0.2,2.2c-0.4,3.9-1.7,15.7-15.4,15.7c-11.2,0-16.9-8.4-16.9-25V76.7c0-16.6,5.7-25,16.9-25
		c9,0,13.6,5.9,15.2,12h18.3C70.3,46,58.5,36.3,40.3,36.3z"/>
	<path d="M111.9,135H86.8V60.5h24.6v2.6c2.8-2.1,7-4.1,12.8-4.1c8.9,0,15.9,4.5,20.2,12.9l0.8,1.5l-19,13.5l-1.1-1.9
		c-1.2-2.1-2.7-4.1-5.6-4.1c-3.3,0-7.6,1.2-7.6,11.7V135z M90.8,131h17.1V92.8c0-13.6,7.3-15.7,11.6-15.7c4,0,6.4,2.3,7.9,4.2
		l12.6-9c-3.7-6.1-9-9.2-15.8-9.2c-7.4,0-11.5,3.8-13.2,6l-3.6,4.5v-9.1H90.8V131z"/>
	<path d="M175.9,136.4c-21.2,0-33.8-12.7-33.8-33.8v-9.9c0-22,10.9-33.6,31.6-33.6c21,0,31.6,12,31.6,35.7v10.3h-37.9
		c0.6,7.1,2.9,9.5,8.7,9.5c5.5,0,6.5-1.2,8.8-4.3l1.3-1.7l18.6,13l-0.9,1.6C198.7,132.2,189.8,136.4,175.9,136.4z M173.6,63.1
		c-18.3,0-27.6,9.9-27.6,29.6v9.9c0,9,2.9,29.8,29.8,29.8c11.6,0,19-3,23.5-9.6l-12.4-8.7c-2.4,2.8-4.7,4.5-11,4.5
		c-10.9,0-12.6-8.3-12.8-15.5l-0.1-2.1h38.1v-6.3C201.2,73.2,192.5,63.1,173.6,63.1z M184.2,91h-21.1l0.2-2.2
		c0.7-7.9,4.2-12,10.4-12c6.6,0,9.9,3.8,10.3,12L184.2,91z M167.6,87h12.3c-0.8-5.6-3.4-6.1-6.1-6.1C171.2,80.9,168.6,81.6,167.6,87
		z"/>
	<path d="M244.2,136.4c-21.2,0-33.8-12.7-33.8-33.8v-9.9c0-22,10.9-33.6,31.6-33.6c21,0,31.6,12,31.6,35.7v10.3h-37.9
		c0.6,7.1,3,9.5,8.7,9.5c5.5,0,6.5-1.2,8.8-4.3l1.3-1.7l18.6,13l-0.9,1.6C267,132.2,258.1,136.4,244.2,136.4z M242,63.1
		c-18.3,0-27.6,9.9-27.6,29.6v9.9c0,9,2.9,29.8,29.8,29.8c11.6,0,19-3,23.5-9.6l-12.4-8.7c-2.4,2.8-4.7,4.5-11,4.5
		c-10.9,0-12.6-8.3-12.8-15.5l-0.1-2.1h38.1v-6.3C269.6,73.2,260.8,63.1,242,63.1z M252.5,91h-21.1l0.2-2.2c0.7-7.9,4.2-12,10.4-12
		c6.6,0,9.9,3.8,10.3,12L252.5,91z M235.9,87h12.3c-0.8-5.6-3.4-6.1-6.1-6.1C239.6,80.9,236.9,81.6,235.9,87z"/>
	<path d="M346.3,135h-25.1V92.8c0-9.8-2.5-11.7-7-11.7c-4.9,0-8.1,2-8.1,11.5V135h-25.1V60.5h24.6v2.7c3.2-2.3,7.6-4.2,12.9-4.2
		c12.7,0,27.9,5.1,27.9,29.6V135z M325.1,131h17.1V88.7c0-17-8.1-25.6-23.9-25.6c-6.3,0-11.2,3.2-13.4,6l-3.6,4.5v-9.1h-16.6V131
		H302V92.7c0-3.8,0-15.5,12.1-15.5c9.7,0,11,7.9,11,15.7V131z"/>
</g>
</svg>
