<?xml version="1.0" encoding="utf-8"?>
<!-- Generator: Adobe Illustrator 25.0.1, SVG Export Plug-In . SVG Version: 6.00 Build 0)  -->
<svg version="1.1" id="Layer_1" xmlns="http://www.w3.org/2000/svg" xmlns:xlink="http://www.w3.org/1999/xlink" x="0px" y="0px"
	 viewBox="0 0 547.8 157" style="fill: #00a958; enable-background:new 0 0 547.8 157;" xml:space="preserve">
<g>
	<path d="M478.7,157c0.1-2.1,0.4-4.3,0.4-6.4c-0.1-29-0.2-57.9-0.3-86.9c0-1.6,0-3.3,0-5.4c8.5,0,16.8,0,25.6,0
		c0.3,0.4,0.8,1.3,1.4,2.3c0.5-0.2,0.9-0.4,1.4-0.4c5.7-1,11.4-2.9,17-2.7c12.2,0.6,20.8,7.2,22.4,19.5c1.6,12.2,2.1,25.1,0,37.1
		c-3.1,17.7-20.6,25.4-37.4,18.5c-0.9-0.4-1.8-0.8-3.4-1.6c0,9,0,17.5,0,26C496.7,157,487.7,157,478.7,157z M505.3,95.9
		c0.5,3.6,0.8,7.1,1.4,10.5c0.7,3.8,3.5,5,7,5c3.5,0,6.2-1.6,6.4-5c0.3-6.9,0.3-13.9-0.2-20.7c-0.2-3.4-3.1-4.8-6.5-4.8
		c-3.5,0-5.8,1.5-6.5,4.9C506.1,89.1,505.7,92.6,505.3,95.9z"/>
	<path d="M386.3,34.5c9.4,0,18.4,0,28.2,0c0,2.9,0,5.5,0,8.1c-0.1,18-0.3,35.9-0.3,53.9c0,9.9,4.1,14.3,12.7,13.7
		c6.8-0.4,10.5-4.9,10.6-13.1c0.1-7.8,0-15.6,0-23.8c4.3-3.5,8.8-7.1,13.7-11.1c4.9,4,9.7,7.8,14.2,11.5c0,9.1,0.4,17.7-0.1,26.3
		c-1,16.6-11.5,28.9-27.8,32.9c-14,3.5-27.1,1.7-38.6-7.3c-9-7.1-12.8-16.8-12.9-27.9c-0.2-20.5-0.2-40.9-0.2-61.4
		C385.9,36,386.1,35.5,386.3,34.5z"/>
	<path d="M437.4,35.3c-2.5-0.2-4.5-0.4-7.3-0.6C437,23.2,443.6,12.1,450.9,0c7.2,11.9,14,22.9,21.1,34.5c-2.2,0.3-3.9,0.5-6.1,0.8
		c0,11,0,22.1,0,34.7c-5.5-4.2-9.9-7.7-14.6-11.3c-4.4,3.4-8.7,6.7-13.9,10.7C437.4,57.5,437.4,46.4,437.4,35.3z"/>
	<path d="M277.6,133.7c0-33,0-65.9,0-99c8.6,0,17.1,0,26.1,0c0,8.9,0,17.3,0,26.3c1.6-0.6,2.7-0.8,3.6-1.3
		c17.7-7.6,34.8,0.9,36.5,20c1.6,17.8,0.3,35.8,0.3,54c-8.5,0-17,0-26.2,0c0-1.8,0-3.6,0-5.3c0-13,0-26-0.1-39
		c0-5.9-2.5-8.9-7.1-8.9c-4.5,0-7.1,3.1-7.1,9c-0.1,12.8-0.1,25.6-0.1,38.5c0,1.8,0,3.6,0,5.7C294.9,133.7,286.5,133.7,277.6,133.7z
		 M300.4,69.9c0-11.5,0-21.5,0-31.5c-6.8,0-12.8,0-19.3,0c0,30.9,0,61.4,0,92.1c6.5,0,12.7,0,19.5,0c0-2.1,0-3.9,0-5.7
		c0-12.1-0.1-24.3,0-36.4c0-6.9,3.8-11,10-11.3c6.3-0.2,10.8,4.1,11,11c0.2,8.5,0,17,0,25.5c0,5.6,0,11.2,0,17c6.7,0,12.8,0,18.6,0
		c0-18,0.8-35.7-0.3-53.4c-0.6-9.8-9.2-15.5-19.2-16.4C312.8,60.1,306.6,63.3,300.4,69.9z"/>
	<path d="M27.6,133.8c-9.6,0-18.4,0-27.6,0c0-33,0-65.8,0-99c0.6-0.2,1.4-0.5,2.2-0.5c13.3,0,26.7-0.3,40,0.1
		C62.4,35,76.4,48.2,76.6,66.5c0.3,18.9-14.2,32.7-35,33.3c-4.5,0.1-8.9,0-14.1,0c0,5.9,0,11.5,0,17.1
		C27.6,122.4,27.6,127.9,27.6,133.8z M23.8,96.1c7.1,0,13.6,0.2,20,0c15.7-0.6,28-11.9,28.9-26.3c1.1-16-8.3-29.1-24.7-30.8
		c-14.7-1.6-29.8-0.3-45-0.3c0,30.4,0,60.9,0,91.6c7,0,13.7,0,20.7,0C23.8,118.9,23.8,108,23.8,96.1z"/>
	<path d="M121.2,85.7c-1.3-1.9-2.2-4.7-3.9-5.4c-6.7-2.8-13-1.4-18.5,4.2c-5.1-5.8-10-11.3-15.7-17.7c3.8-2.2,8.4-6,13.7-7.6
		c11-3.5,22.4-3.1,33.4,0.8c10.5,3.7,16.4,11.3,16.6,22.5c0.3,16.9,0.1,33.9,0.1,51.2c-8.4,0-16.5,0-25,0c-0.3-0.6-0.8-1.5-1.3-2.6
		c-0.5,0.1-1,0.1-1.4,0.4c-8.2,4.5-16.7,4.2-25.1,0.9c-10.3-4-16.2-15.2-14.3-26.4c1.8-10.7,10.7-18.3,22.6-18.9
		c5.9-0.3,11.9,0,17.8,0C120.6,86.6,120.9,86.2,121.2,85.7z M86.5,68.1c4.8,4.5,8.6,8.2,12.3,11.7c7.2-4.6,17-5.2,21.6-1.7
		c4,3.1,3.7,7.3,3,12c-6.6,0-13-0.3-19.3,0.1c-17,0.8-25.8,14.8-18.9,29.6c5.6,12,24.2,15.7,34.9,6.9c1.3-1.1,2.5-2.2,4.2-3.6
		c0.2,3,0.3,5.2,0.5,7.4c6.4,0,12.4,0,18.7,0c0-16.5,0.4-32.7-0.1-48.8c-0.3-9.1-5.7-15.5-14.4-18.4c-10.2-3.4-20.7-3.6-31-0.8
		C94.3,63.3,91,65.8,86.5,68.1z"/>
	<path d="M269,66.9c-5.6,6.4-10.8,12.5-16.2,18.7c-1.8-1.4-2.9-2.3-4.1-3.2c-5.9-3.9-12.6-1.7-13.8,5.3c-0.9,4.8-1,10-0.3,14.8
		c1.3,9.1,8.2,11.6,15.5,6c0.7-0.5,1.3-1,2-1.6c5.5,6,11,12,16.8,18.3c-7.2,7.6-17.8,10.6-29.5,9.4c-19.9-2-31.2-14.1-31.6-34.2
		c-0.2-7.2,0.2-14.8,2.4-21.6C217.7,55.1,252.5,48.9,269,66.9z M252.7,111.4c-11.3,6-19.8,3.3-21.5-7.3c-0.9-5.8-0.7-12,0.4-17.8
		c1.7-8.4,9.7-11.6,17.5-7.8c1.1,0.6,2.3,1.1,2.8,1.4c4.4-4.2,8.5-8.1,12.5-11.9c-18.2-15.4-47.3-6.5-52.3,16
		c-1.1,5.1-1.5,10.6-1.2,15.8c1,17.2,8.9,27.6,23.5,30.5c10.9,2.2,21.4,1.2,30.1-6C260.4,119.9,256.5,115.6,252.7,111.4z"/>
	<path d="M188.5,111.7c4,0.2,7.4,0.4,11.1,0.6c0,7.1,0,14,0,22.3c-7.8-0.7-15.7-0.6-23.1-2.4c-9.3-2.3-14.7-10.7-15-20.7
		c-0.2-8.3-0.1-16.6-0.1-25c0-1.6-0.1-3.2-0.2-5.1c-2.3-0.2-4.2-0.4-6.4-0.6c0-6.6,0-13,0-19.8c2-0.2,3.9-0.4,6.2-0.7
		c0-6.7,0-13.2,0-20.2c9.2,0,17.9,0,27,0c0,6.6,0,13.2,0,20.3c4,0,7.6,0,11.5,0c0,7,0,13.4,0,20.4c-3.5,0-7.1,0-11.1,0
		C188.5,91.3,188.5,101.1,188.5,111.7z M196,77.8c0-4.8,0-8.9,0-13.3c-3.9-0.2-7.5-0.4-11.7-0.6c0-6.7,0-13.3,0-20
		c-6.7,0-12.6,0-19.1,0c0,6.8,0,13.4,0,20.1c-2.5,0.2-4.4,0.3-6.6,0.5c0,4.5,0,8.7,0,13.1c2.2,0.2,4.1,0.4,6.4,0.7
		c0,10.7,0,21.2,0,31.7c0,8.3,3.3,15,11.1,18.6c6.4,3,13.2,2.1,19.9,2c0-5.4,0-10.1,0-14.9c-2.4-0.1-4.7,0.4-6.3-0.4
		c-2-1-4.8-3-4.8-4.6c-0.4-10.7-0.2-21.5-0.2-32.6C188.6,77.8,192.1,77.8,196,77.8z"/>
	<path d="M24.1,78.1c0-7.6,0-14.5,0-21.8c6.7,0,13.3-0.6,19.7,0.2c5.2,0.6,8.4,6.2,8,11.6c-0.4,5-4.2,9.6-9.4,9.9
		C36.4,78.4,30.5,78.1,24.1,78.1z M27.7,75.1c3.8,0,7,0,10.3,0c1,0,2,0,3-0.1c4.3-0.5,7.6-3.9,7.5-7.9c-0.1-4.4-2.6-7.4-6.9-7.8
		c-4.5-0.5-9.1-0.1-13.9-0.1C27.7,64.6,27.7,69.5,27.7,75.1z"/>
	<path d="M123.4,101.9c2,11.2-5.8,17.8-16.3,14.1c-3.5-1.2-6.1-3.9-5.1-7.5c0.7-2.5,3.4-5.9,5.7-6.3
		C112.8,101.3,118.2,101.9,123.4,101.9z M121.4,106.3c-0.4-0.4-0.9-0.9-1.3-1.3c-3.6,0-7.3-0.3-10.9,0.2c-1.4,0.2-3.1,1.9-3.7,3.3
		c-0.4,0.8,0.8,3.5,1.6,3.6c3.2,0.5,6.7,1.1,9.6,0.2C118.7,111.6,119.9,108.4,121.4,106.3z"/>
</g>
</svg>
