<?xml version="1.0" encoding="utf-8"?>
<!-- Generator: Adobe Illustrator 25.0.1, SVG Export Plug-In . SVG Version: 6.00 Build 0)  -->
<svg version="1.1" id="Layer_1" xmlns="http://www.w3.org/2000/svg" xmlns:xlink="http://www.w3.org/1999/xlink" x="0px" y="0px"
	 viewBox="0 0 704 237.9" style="fill: #29349b; enable-background:new 0 0 704 237.9;" xml:space="preserve">
<g>
	<path d="M605.5,237.9c-0.3-2.2-0.9-4.4-0.9-6.7c-0.1-45.9-0.2-91.8-0.2-137.6c0-1.9,0.3-3.9,0.5-6.3c12.1,0,23.9,0,36,0
		c0.5,1.4,1.1,2.9,1.8,4.8c8.4-6,17.8-6.8,27.5-5.9c17.8,1.6,30.2,14.1,32.3,32.3c0.3,2.4,1,4.8,1.5,7.2c0,12.6,0,25.3,0,37.9
		c-0.5,2.4-1.2,4.7-1.5,7.1c-2.4,19.3-16.2,31.7-35.6,32.4c-8.2,0.3-15.7-1.6-24.1-5.2c0,11,0.1,21,0,31c0,3-0.6,6-0.9,8.9
		C629.7,237.9,617.6,237.9,605.5,237.9z M642.8,146c0.3,3.6,0.3,8.9,1.4,14c1.2,5.9,4.7,8.2,10.2,8.1c5.3-0.1,8.9-2.8,9.9-8.5
		c1.7-10,1.8-20.1-0.1-30.1c-1.2-6.7-6.3-9.6-13-8.1c-5.5,1.2-6.9,5.6-7.6,10.1C642.9,135.6,643,140,642.8,146z"/>
	<path d="M564.5,0c9.8,16.7,19.5,33.4,29.7,50.9c-3.3,0.7-5.8,1.3-9.1,2c0,16.8,0,33.6,0,52.3c-7.6-6.3-13.9-11.5-20.7-17
		c-6.3,5.1-12.6,10.3-20.1,16.4c0-18.1,0-34.8,0-51.8c-3.6-0.4-6.5-0.8-10.5-1.2c1.6-2.9,2.7-5.3,4.1-7.6
		c7.5-12.8,15.1-25.6,22.6-38.5c1-1.7,1.6-3.6,2.5-5.4C563.5,0,564,0,564.5,0z"/>
	<path d="M470,51c12.9,0,24.5,0,36.1,0c1.5,0,2.9,0.3,5.2,0.5c0,2.9,0,5.6,0,8.3c0,28-0.1,56-0.1,84c0,2.8-0.1,5.6,0.2,8.3
		c1,8.4,6.9,13.7,15.1,14.2c8.1,0.4,14.8-4.4,16.6-12.4c0.8-3.4,1-7,1.1-10.5c0.1-10.8,0-21.7,0-32.9c6.4-5.3,13-10.8,20-16.6
		c6.9,5.8,13.6,11.4,20.3,17c0.1,2.2,0.4,4.2,0.4,6.2c-0.1,11.6,0.1,23.2-0.5,34.8c-1.2,23.5-15.3,41.7-37.8,48.5
		c-16.3,4.9-32.5,4.2-47.8-3.7c-17.2-8.9-26.5-23.5-28.4-42.7c-0.3-3.3-0.4-6.5-0.4-9.8c-0.1-28-0.2-56-0.2-84
		C470,57.5,470,54.8,470,51z"/>
	<path d="M114.5,69.5c-8.9,8.7-17.3,17-26.1,25.6c-0.7-0.5-2.1-1.6-3.4-2.6c-8.8-6.5-18.7-7.1-28.8-5.1c-5.7,1.1-6.9,3-9.4,9.8
		c0.9,6,5.4,7.9,10.6,8.8c6.5,1,13,1.8,19.4,2.9c3.2,0.5,6.5,1.1,9.6,2c17.3,5.1,27.2,16.8,29.2,34.6c0.7,6.4,0.6,13.2-0.6,19.5
		c-3.5,18.1-15.6,29.2-32.5,34.5c-20.6,6.5-41.3,5.4-61.5-2.5c-8.1-3.2-15-8.1-21-15.5c3.7-4.8,8.2-8.7,12.4-13
		c4.2-4.3,8.5-8.6,13-13.2c2.3,1.7,4.2,3.4,6.3,4.5c11.5,6.3,23.7,8.2,36.5,5.1c1.9-0.5,3.8-1.5,5.3-2.8c5.1-4.6,3.5-13.1-3.3-15.1
		c-5.5-1.6-11.4-2-17.1-3.1c-4.7-0.8-9.5-1.5-14.1-2.8c-24-6.5-32-22.7-31.4-43.7c0.6-23.8,16-41.4,39.4-46
		c13.6-2.7,27.1-2.1,40.5,1.5C97.9,55.8,106.8,61.4,114.5,69.5z M6.9,181.9c3.5,2.5,6.8,5.2,10.3,7.5c9.2,5.8,19.7,7.6,30.3,8.6
		c13.5,1.3,26.7,0.1,39.2-5.7c11.3-5.3,19.4-13.5,22.8-25.7c2.6-9.2,2-18.5-0.6-27.6c-2.7-9.9-8.8-17-18.3-20.7
		c-5.3-2.1-11-3.4-16.7-4.5c-6.7-1.3-13.5-1.8-20.2-3.1c-6.8-1.3-11.4-6.1-12-11.9c-0.6-6.1,3.1-12.2,9.3-15.1
		c1.4-0.6,2.8-1.3,4.3-1.5c10.4-1,20.7-1.4,30.1,4.3c1.2,0.7,2.6,1.3,2.7,1.3c6.7-6.2,12.7-11.7,19.6-18.1c-5.1-3.1-9.3-6.4-14-8.5
		c-15-6.5-30.8-7.6-46.7-4c-24.7,5.6-37.7,24.9-34.1,50c1.8,12.7,8.3,22.1,20.5,26.9c4.4,1.7,9.1,3,13.8,3.9
		c7.2,1.4,14.5,2,21.7,3.3c7.9,1.5,11.8,6,12.1,13.3c0.3,8-3,12.9-10.7,15.3c-3.1,0.9-6.4,1.5-9.6,1.6c-12.5,0.6-24.5-1.6-34.3-8.2
		C19.8,169.5,13.7,175.4,6.9,181.9z"/>
	<path d="M297.5,130.4c-1.5-8.4-3-9.9-9.4-10.7c-9-1.1-12.6,0.1-22,7.9c-7.8-7.9-15.6-15.9-23.8-24.1c7.3-9.8,16.8-15,28.1-16.9
		c12.1-2,24.2-1.6,36.1,1.4c18.2,4.6,29.3,17.8,29.5,36.4c0.3,24.7,0.1,49.5,0.1,74.2c0,1-0.3,2-0.6,3.9c-6,0-12,0.1-17.9,0.1
		c-6,0-12.1,0-18.1,0c-0.8-1.7-1.5-3.1-2.1-4.4c-0.4,0.1-0.9,0.2-1.3,0.4c-14.2,7.6-28.3,6.7-41.7-1.4c-4.3-2.6-8.3-6.9-10.8-11.3
		c-11.8-21.7-5-53.2,30.6-55.2C281.6,130,289.2,130.4,297.5,130.4z M267.6,118.6c7.1-5.5,16-6.2,25.5-3.7c5.1,1.3,8.4,4.8,9.3,9.9
		c0.6,3.4,0.1,6.9,0.1,11.3c-3.1,0-5.8,0-8.5,0c-7.8,0.1-15.7-0.3-23.4,0.5c-12.2,1.3-21.8,7.2-25.3,19.5c-3.6,12.7-1.2,24.7,8.9,34
		c9.6,8.8,31.9,12.4,44.3-0.8c1.3-1.4,2.9-2.6,5-4.4c0.3,4.3,0.5,7.7,0.8,11.7c9,0.2,17.6,0.3,26.5,0c0-24.7,0.5-48.4-0.2-72.1
		c-0.5-17-9.4-26.7-25.8-31.2c-9.9-2.7-20-2.9-30-1.8c-9.1,1.1-17.6,4-23.9,11C256.3,107.9,261.6,112.9,267.6,118.6z"/>
	<path d="M231,157.9c-22.4,0-43.5,0-64.7,0c2,8.9,7.1,11.9,17.7,12c8.2,0,14.3-4,19.2-8.8c7.9,7.7,15.6,15.1,23.7,22.9
		c-8.6,10.8-20.2,17.2-34.3,18.8c-9.5,1.1-19.2,1.1-28.6-1.3c-15.6-3.9-26.7-13-32-28.3c-6.3-18.2-6.5-36.7-0.3-54.9
		c7.5-22,27.3-34,50.6-32.7c29.8,1.7,46,24.2,47.6,46.8C230.4,140.5,230.6,148.5,231,157.9z M160.4,152.6c21.8,0,43.1,0,64.7,0
		c0.1-9.7,0.6-18.4-1.5-27.1c-5-20.6-21-33.8-42.3-34.6c-22.2-0.8-39,10.7-45.4,31.3c-4.8,15.6-4.6,31.3,0.2,46.9
		c4.5,14.7,14.5,23.8,29.5,27.4c10.7,2.5,21.5,2.6,32.2,0c8.7-2.1,16.2-6.3,21.4-12.3c-5.1-5.8-9.9-11.1-14.8-16.6
		c-8.8,6.5-17.9,9.2-28.2,6.9C165.7,172.2,160.2,165.1,160.4,152.6z"/>
	<path d="M409.5,201.8c-11.2-0.7-22,1.4-32.6-1.7c-13.4-4-22.6-15.5-23-29.5c-0.4-12.6-0.2-25.2-0.2-37.8c0-24.2-0.1-48.4-0.1-72.6
		c0-2.5,0-5,0-8.5c6.6,0,12.8-0.1,19-0.1c6,0,12,0,19.1,0c0.1,38.9-0.1,77.4,0,115.8c5.9,3.3,12,0.8,17.8,2.2
		C409.5,179.9,409.5,190.2,409.5,201.8z M358.4,56.3c0,3.4,0,6.1,0,8.9c0,25,0,50,0,75c0,9.8-0.3,19.7,0.1,29.5
		c0.5,11.2,5.9,19.6,16.2,24.5c9.8,4.6,20,2.6,30.1,2.6c0-8,0-15,0-22.2c-6.2-1.6-14,1.6-18.2-7.8c0-35.5,0-72.5,0-109.5
		c-1.4-0.5-2.1-0.9-2.7-0.9C375.8,56.3,367.7,56.3,358.4,56.3z"/>
	<path d="M302,153.1c0.3,1.5,0.5,2.2,0.6,2.9c1.3,16.2-7.5,21.1-22,19.6c-6-0.6-10.1-5.3-10.2-11.2c-0.1-5.8,3.8-10.7,10.1-11.2
		C287.5,152.7,294.5,153.1,302,153.1z M275.3,164.3c3.5,6.4,7.7,8,14.5,6.1c6-1.7,7.8-4.6,7.4-11.8
		C283.1,156.2,279.1,157.2,275.3,164.3z"/>
	<path d="M197.7,135.2c-12.9,0-24.8,0-37.2,0c-0.9-7.8,1.3-14.2,7.5-18.6c6.3-4.4,13.4-4.5,20-1.1
		C195.6,119.3,197.6,126.4,197.7,135.2z M191.8,130c-1.7-8.4-6-12-13.4-11.7c-7.3,0.3-11.1,4-12,11.7C174.8,130,183.2,130,191.8,130
		z"/>
</g>
</svg>
