<?xml version="1.0" encoding="utf-8"?>
<!-- Generator: Adobe Illustrator 25.0.1, SVG Export Plug-In . SVG Version: 6.00 Build 0)  -->
<svg version="1.1" id="Layer_1" xmlns="http://www.w3.org/2000/svg" xmlns:xlink="http://www.w3.org/1999/xlink" x="0px" y="0px"
	 viewBox="0 0 481.9 156.7" style="fill: #f65109; enable-background:new 0 0 481.9 156.7;" xml:space="preserve">
<path d="M481.9,109c-0.6,2.7-1.3,5.4-1.9,8.1c-2.1,9.3-10,16-20.9,16.9c-3,0.2-6,0.3-9-0.2c-2.9-0.5-5.6-1.8-8.9-2.9
	c0,8.8,0,17.2,0,25.9c-8.6,0-16.6,0-25,0c0-32.9,0-65.5,0-98.6c8.1,0,16,0,24.1,0c0.3,0.8,0.6,1.7,1,2.8c6.9-4.3,14.4-5,22.1-3
	c10.4,2.7,16.3,9.7,17.6,20.4c0.1,1.3,0.6,2.5,1,3.7C481.9,91,481.9,100,481.9,109z M441,95.5c0.3,3.3,0.5,6.6,1.1,9.9
	c0.7,3.8,2.8,5.5,6.4,5.6c4.1,0.1,6.4-1.4,7.2-5.3c1.3-6.7,1.3-13.5,0-20.3c-0.7-3.9-3.3-5.6-7.1-5.4c-3.5,0.1-5.8,1.9-6.5,5.7
	C441.5,88.9,441.3,92.2,441,95.5z"/>
<path d="M0,119c3.6-3.4,7.3-6.7,10.9-10.1c2-2,3.8-4.2,6-6.7c5,4.7,10.5,6.9,16.6,7.3c3.9,0.3,8,0.1,11.9-0.6
	c4.1-0.7,5.7-3.1,5.6-6.5c-0.1-3.3-1.6-4.9-5.8-5.7c-3.4-0.7-6.9-1.1-10.4-1.6c-2.3-0.4-4.6-0.6-6.9-1.1C11,90.1,3.7,78.7,5.4,61.5
	c1.3-13,8.7-21.9,21.2-25.8c16-5,31.6-3.7,45.6,6.4c1.6,1.1,2.9,2.6,4,3.7C70.4,51.7,64.9,57.2,59,63c-4.9-5-11.6-6.3-18.8-5.7
	c-5.4,0.4-7.3,2.1-8.8,7.2c0.7,3.7,3.5,4.9,6.8,5.4c4.4,0.7,8.9,1.1,13.3,2c3.4,0.7,6.8,1.6,10,2.8c8,3.1,12.9,9.1,14.8,17.5
	c1.3,5.7,1.5,11.6,0.3,17.3c-1.5,6.9-5.3,12.5-11,16.7c-5,3.7-10.7,6.1-16.9,7c-11.2,1.7-22.2,1.2-33-2.4c-6.1-2.1-10.7-6.5-15.9-10
	C0,120.3,0,119.7,0,119z M4.7,120.8c4.4,2.5,8.2,5.3,12.5,6.8c11.4,4,23.1,4.7,34.8,1.5c17.3-4.8,25.2-18.6,21-36.1
	c-1.7-7.2-5.9-12.3-12.7-14.9c-3.7-1.4-7.6-2.2-11.5-3c-4.4-0.9-8.9-1.2-13.3-2.1c-3.8-0.8-6.6-3.2-7.4-7.2
	c-0.7-3.9,1.3-7.9,5.2-9.9c2-1,4.4-1.7,6.6-1.8c6.9-0.5,13.7,0.1,19,4.3c4.2-4.1,8.3-8,12.4-12.1c-0.7-0.6-1.3-1.4-2.2-1.9
	C54.5,35,38.9,33.8,23.2,41.1C11.8,46.3,7,57.9,9.1,71.4C10.7,82,18.2,88.7,30.8,91c0.3,0.1,0.7,0.1,1,0.1c4.4,0.6,8.9,1.2,13.3,1.9
	c5.9,0.9,8.8,3.8,9.1,8.8c0.3,5.8-2.2,9.1-8.3,10.7c-1.4,0.4-3,0.5-4.4,0.6c-8.6,0.5-16.8-0.7-23.8-5.4C13.4,112,9.4,116,4.7,120.8z
	"/>
<path d="M390,0c2.7,4.9,5.2,9.9,8,14.8c3.6,6.3,7.3,12.6,11.2,19.3c-2.3,0.3-4,0.5-6.2,0.8c0,11,0,21.9,0,34c-5-4-9.2-7.4-13.7-11
	c-4.3,3.4-8.5,6.7-13.4,10.6c0-11.7,0-22.4,0-33.5c-2.3-0.3-4.4-0.6-6.9-0.9c4-6.8,7.7-13.3,11.4-19.7c2.1-3.6,4.2-7.1,6.3-10.8
	c0.6-1.1,0.9-2.4,1.3-3.6C388.6,0,389.3,0,390,0z"/>
<path d="M375.9,73.8c4.5-3.7,8.7-7.2,13.3-11c4,3.3,8,6.4,11.8,9.8c0.9,0.8,1.8,2.3,1.8,3.4c0,9.6,0.6,19.4-0.7,28.9
	c-2.3,16-15,27.4-31.1,29.2c-10.5,1.2-20.6-0.1-29.5-6.5c-8.9-6.4-14.4-15.1-14.6-26c-0.4-21.8-0.2-43.6-0.2-65.4
	c0-0.5,0.2-0.9,0.4-1.7c8.6,0,17.2,0,26.4,0c0.1,1.7,0.2,3.4,0.2,5.2c0,18.3,0,36.6,0,55c0,2,0,4,0.2,6c0.7,5.5,4.1,8.8,9.4,9.4
	c5.5,0.6,10-2.2,11.6-7.4c0.6-2,0.8-4.2,0.9-6.4C375.9,88.8,375.9,81.4,375.9,73.8z"/>
<path d="M88.5,57.8c8,0,15.9,0,24,0c0.3,0.9,0.5,1.8,0.9,2.9c0.6-0.2,1.2-0.4,1.7-0.7c6.2-3.8,13-3.9,19.8-2.5
	c11.6,2.4,17.6,10.4,18.6,21.8c1,11.9,1.6,24-0.6,35.8c-2.1,11.4-10.2,18.2-21.8,19.1c-5.9,0.4-11.5-0.4-17.2-3.4
	c0,8.8,0,17.1,0,25.8c-8.6,0-16.8,0-25.4,0C88.5,123.8,88.5,91,88.5,57.8z M110.3,123c1.8,1.5,2.9,2.4,4,3.3
	c7.3,5.8,15.3,5.9,23.5,2.8c7.8-2.8,11.4-9,12.1-16.8c0.6-6.9,0.9-13.9,0.9-20.9c0-4.5-0.3-9-1-13.4c-0.8-5.4-2.7-10.3-7.5-13.6
	c-7.9-5.5-21.2-6.7-29.4,1.6c-0.8,0.8-1.7,1.5-2.9,2.5c-0.2-2.8-0.4-5-0.6-7.4c-5.9,0-11.5,0-17.1,0c-1,6.1-0.8,88.6,0.2,92.1
	c5.7,0,11.5,0,17.7,0C110.3,143.3,110.3,133.5,110.3,123z"/>
<path d="M240.5,132.9c-6.5,0-12.7,0.5-18.8-0.1c-8.3-0.8-15.8-8.1-17.6-16.2c-0.6-2.6-0.9-5.3-0.9-7.9c-0.1-23.3,0-46.7,0-70
	c0-1.3,0.1-2.6,0.2-4.3c8.3,0,16.3,0,25,0c0.6,12.7,0.2,25.5,0.2,38.2c0.1,12.6,0,25.3,0,37.7c4,2.7,8.1,0.6,11.9,2
	C240.5,119,240.5,125.7,240.5,132.9z M226.1,112c-0.2-1.9-0.7-4.5-0.7-7.1c-0.1-20.8,0-41.6-0.1-62.4c0-1.7-0.2-3.5-0.3-5.3
	c-6.4,0-12.2,0-18.4,0c-0.1,1.8-0.3,3.4-0.3,5c0,21.8,0,43.6,0,65.4c0,2.1,0.3,4.3,0.6,6.4c1.2,7.6,5.4,12.6,12.8,15
	c5.8,1.9,11.7,0.8,17.7,0.9c0-5.3,0-10,0-14.7C233.7,114.4,229.8,115.9,226.1,112z"/>
<path d="M275,111.5c3.9,0.2,7.5,0.4,11.5,0.6c0,6.8,0,13.6,0,20.9c-8.1,0.1-16.4,1.7-24.3-1.9c-9.5-4.3-13-12.4-13-22.3
	c-0.1-23.2,0-46.3,0-69.5c0-1.5,0-3,0-4.6c4.3-1.3,8.5-0.5,12.6-0.7c4-0.1,8,0,12.6,0c0.1,2,0.3,3.7,0.3,5.5c0,21.8,0,43.6,0,65.5
	C274.6,106.9,274.8,108.9,275,111.5z M271.3,37.3c-6.7,0-12.5,0-18.8,0c-0.1,2-0.3,3.7-0.3,5.5c0,13,0,26,0,38.9
	c0,9.2-0.1,18.3,0,27.5c0.2,10.9,5.4,18.3,14.8,20.4c5.3,1.2,10.8,0.6,16.2,0.3c0-5.3,0-10,0-14.7c-3.8-0.9-7.8,0.8-11.3-3.3
	c-0.2-1.8-0.7-4.4-0.7-6.9c-0.1-20.6,0-41.3,0-61.9C271.3,41.3,271.3,39.5,271.3,37.3z"/>
<path d="M189.8,132.9c-8.2,0-16.1,0-24.4,0c0-23.9,0-47.8,0-72c7.9,0,16,0,24.4,0C189.8,84.6,189.8,108.5,189.8,132.9z M168.3,63.9
	c0,22.4,0,44.1,0,66.2c3.3,0,6.3,0,9.3,0c3.1,0,6.2-0.1,9.1-0.1c0-22.5,0-44.2,0-66.1C180.5,63.9,174.6,63.9,168.3,63.9z"/>
<path d="M165.3,33.7c8.1,0,16.1,0,24.5,0c0,6.3,0,12.5,0,19.1c-8.1,0-16.1,0-24.5,0C165.3,46.5,165.3,40.3,165.3,33.7z M168.2,49.8
	c6.5,0,12.4,0,18.6,0c0-4.5,0-8.7,0-13c-6.3,0-12.4,0-18.6,0C168.2,41.3,168.2,45.4,168.2,49.8z"/>
<path d="M132.5,95.9c-0.5,3.8-0.6,7.7-1.5,11.4c-1.2,5.1-4.6,7.3-9.9,7.3c-5.2,0-8.7-2.4-9.8-7.4c-1.8-7.7-1.8-15.5,0.1-23.2
	c1.3-5.1,4.6-7.2,9.9-7.2c5.4,0,8.6,2.2,9.8,7.4C132,87.9,132.1,91.9,132.5,95.9z M113.6,95.6c0.5,3.5,0.7,7.1,1.5,10.6
	c0.9,3.5,3.1,4.8,6.7,4.6c3.2-0.2,5.2-1.7,5.9-5c1.4-6.7,1.4-13.5,0.1-20.3c-0.7-3.5-2.9-5.2-6.2-5.3c-3.4-0.1-5.7,1.4-6.5,4.9
	C114.2,88.4,114,91.9,113.6,95.6z"/>
</svg>
