<?xml version="1.0" encoding="utf-8"?>
<!-- Generator: Adobe Illustrator 25.0.1, SVG Export Plug-In . SVG Version: 6.00 Build 0)  -->
<svg version="1.1" id="Layer_1" xmlns="http://www.w3.org/2000/svg" xmlns:xlink="http://www.w3.org/1999/xlink" x="0px" y="0px"
	 viewBox="0 0 706.6 211.4" style="fill: #4a1f00; enable-background:new 0 0 706.6 211.4;" xml:space="preserve">
<g>
	<path d="M617.7,211.4c0.1-5,0.2-10,0.2-15c0-37-0.1-74-0.2-111c0-2.4,0-4.9,0-7.9c11.4,0,22.2,0,33.4,0c0.3,0.8,0.8,2,1.3,3.5
		c1.1-0.5,2-0.9,3-1.4c12.6-5.4,25-5.4,36.8,1.7c10.4,6.3,13.9,16.4,14.2,27.8c0.3,12.9,0.2,25.9-0.2,38.8
		c-0.9,27-23.1,35.6-40.6,32.4c-4.4-0.8-8.6-2.4-13.6-3.9c-0.1,11.6-0.2,23.2-0.3,34.9C640.4,211.4,629.1,211.4,617.7,211.4z
		 M672.8,129.8c-0.5-4.7-1-9.7-1.7-14.6c-0.4-2.8-1.9-5-4.8-6.1c-6.1-2.4-11.5,0.4-12.7,7.1c-0.8,4.4-0.9,9-0.9,13.6
		c0,4.1,0.2,8.2,0.8,12.2c0.8,5,4.2,7.7,8.9,7.8c4.5,0.1,7.5-2,8.7-7C672.1,138.6,672.2,134.3,672.8,129.8z"/>
	<path d="M582.3,0c3.6,5.9,7.3,11.8,10.9,17.8c5.1,8.5,10,17,15,25.5c0.5,0.9,0.7,2,1.1,3.4c-2.7,0.3-4.9,0.6-8,1
		c-1.2,14.6-0.3,29.5-1.2,45.4c-6.3-4.9-11.8-9.3-18-14.2c-5.5,4.3-11.1,8.7-17.4,13.7c-1.8-15.3-0.5-30.1-1.4-45.3
		c-2.8,0-5.3,0-8.6,0c0.5-1.8,0.6-3.1,1.1-4.2c7.7-13.8,15.5-27.6,23.3-41.3c0.4-0.7,1.1-1.2,1.7-1.8C581.4,0,581.8,0,582.3,0z"/>
	<path d="M0,46.4c30.7,0,61.3,0.1,92,0.1c2.5,0,4.9,0,7.7,0c0,11,0,21.6,0,32.8c-10.5,0-20.6,0-31.3,0c0,33.8,0,66.9,0,100.2
		c-6.3,1.5-12.1,0.6-17.9,0.7c-5.7,0.2-11.3,0-17.8,0c-0.6-8.6-0.2-16.9-0.3-25.2c-0.1-8.4,0-16.8,0-25.2c0-8.2,0-16.4,0-24.5
		c0-8.4,0-16.7,0-25.8C21.2,79.3,10.6,79.2,0,79.1C0,68.2,0,57.3,0,46.4z M36.6,175.9c9.7,0,18.5,0.1,26.8-0.1
		c0.4-1.1,0.5-1.3,0.5-1.5c0.1-32,0.1-64.1,0.2-96.1c0-0.7,0.1-1.4,0.2-2c0-0.2,0.3-0.3,0.4-0.5c0.2-0.2,0.3-0.3,0.9-1
		c9.5,0,19.4,0,29.5,0c0-8,0-15.6,0-23.1c-9.7-1.4-85.4-1.1-90.6,0.5c0.1,7.4-0.5,15,0.4,23.1c10.9,0,21,0,31.6,0
		C36.6,108.9,36.6,142,36.6,175.9z"/>
	<path d="M534.4,45.9c0,6.3,0,12.2,0,18c0,21.1-0.1,42.2-0.2,63.4c0,2.5,0,5,0.2,7.5c0.7,8,5.7,13,13.6,13.5
		c7.5,0.5,13.9-4.2,15.2-11.7c0.7-4.4,0.6-9,0.7-13.6c0.1-8.2,0-16.3,0-24.5c5.8-4.9,11.5-9.7,17.8-15c7.1,3.8,12.1,10.4,19.2,15.3
		c0,2.1,0,4.3,0,6.6c-0.2,9.1-0.6,18.2-0.4,27.2c0.4,18.4-10.6,40.5-38.6,47c-11.3,2.6-22.5,1.7-33.4-2.4
		c-18.6-7-30.6-24.1-30.7-43.9c-0.2-24.3-0.4-48.6-0.6-72.9c0-4.7,0-9.4,0-14.6C509.8,45.9,521.7,45.9,534.4,45.9z"/>
	<path d="M335.7,179.8c-11.8,0-22.6,0-33.9,0c0-23.4,0-46.5,0-70c-2.9-0.4-5.3-0.7-8.6-1.1c0-2.9-0.1-6-0.1-9.1c0-3-0.1-6.1-0.2-9.1
		c-0.5-0.2-0.9-0.3-1.4-0.5c-8,7.9-15.9,15.9-24.3,24.2c-0.9-0.7-1.9-1.2-2.6-1.9c-3.6-3.6-7.9-4.5-12.5-2.6
		c-4.6,1.9-5.5,6.1-5.5,10.7c0.1,16.1,0,32.3,0,48.4c0,3.6,0,7.2,0,11.1c-11.4,0-22.2,0-33.1,0c-1.3-4.4-1.8-93-0.5-101.4
		c10.5,0,21.1,0,31.9,0c0.5,1.4,0.9,2.8,1.3,4.3c16-7.7,31.1-8.7,45.5,4.4c0.7-1.7,1.3-3.1,2-4.9c2.1-0.2,4.3-0.3,7.3-0.6
		c0.1-1.8,0.3-3.8,0.4-5.7c0.7-18.9,12.6-30.8,31.5-31.4c6.3-0.2,12.7,0,19.4,0c0,9.9,0,19.3,0,29.3c-5,0.2-9.9,0.4-15.4,0.7
		c-0.4,2.4-0.8,4.4-1.3,7.3c5.8,0,10.9,0,16.4,0c0,9.3,0,17.8,0,27c-5.2,0-10.1,0-15.8,0c-1.2,6.3-0.5,12.1-0.6,17.9
		c-0.1,5.9-0.1,11.8-0.1,17.7c0,5.7,0,11.4,0,17C335.7,167.5,335.7,173.3,335.7,179.8z M347.4,69.1c0-6.7,0-13,0-19.9
		c-4.9,0-9.4-0.1-13.9,0c-16.9,0.5-27.1,11.4-27,26.9c0,3.1,0,6.3,0,9.6c-3.3,0.5-5.9,0.8-8.8,1.2c0,6,0,11.8,0,17.7
		c2.9,0.2,5.3,0.4,8.4,0.7c0,23.4,0,46.7,0,70.2c8.7,0,16.8,0,25.6,0c0-23.6,0-46.8,0-70.9c5.8,0,10.9,0,15.8,0c0-6.4,0-12,0-17.8
		c-5.5-0.3-10.6-0.5-16-0.7c0.4-5.4-1.1-10.4,2-14C337.6,68.2,342.6,70.4,347.4,69.1z M217.1,175.6c8.6,0,16.6,0,25.3,0
		c0-5.3,0-10.3,0-15.2c0-14.1,0.2-28.2,0-42.2c-0.1-9.2,9.6-17.4,20.3-12.8c1.6,0.7,3.1,1.6,4.9,2.5c6.3-6.5,12.4-12.8,18.6-19.2
		c-4.9-4.6-10.1-6.3-15.9-6.8c-11.1-1-20.2,3.3-28.6,11.3c-0.2-3.8-0.4-6.7-0.5-9.7c-8.2,0-16,0-24.1,0
		C217.1,114.2,217.1,144.6,217.1,175.6z"/>
	<path d="M410.1,147.6c-1.7-4.1-5.4-3.5-8.3-3.9c-5.4-0.8-10.8-1-16.2-1.8c-2.9-0.4-5.8-1.2-8.5-2.2c-10.5-4-16.1-11.8-17.4-23
		c-2.4-20.7,9.8-33.7,27.1-38.2c13.4-3.5,27-2.6,40.2,1.6c6.3,2,11.6,5.7,16.4,11.6c-7.4,7.2-14.7,14.2-22.2,21.5
		c-6.6-5.7-14.3-7.1-22.4-6.4c-2,0.2-3.8,1.6-6.2,2.6c2.6,3.1,5.3,3.2,8,3.5c5,0.4,10,0.7,14.9,1.4c11.1,1.7,20.4,6.2,25.4,17
		c6.4,13.8,3.9,34.4-13.2,43.8c-5.7,3.1-11.7,5.3-17.9,5.9c-10.8,1.1-21.8,1.4-32.5-1.2c-9.2-2.3-17.1-7-23.9-14.7
		c3.7-3.7,7.4-7.4,11-11.1c3.7-3.7,7.3-7.4,11.4-11.7c7.2,7.7,16,9.7,25.6,9C404.5,151.2,407.7,151,410.1,147.6z M360.6,165.5
		c5.5,5.3,12,8.7,19.2,9.8c8,1.2,16.3,1.7,24.4,1.5c7-0.2,13.9-1.9,20.2-5.4c10.7-5.9,16-16.7,14.4-29.2
		c-1.5-11.8-8.8-19.3-21.6-22.2c-2.2-0.5-4.5-0.8-6.7-1c-4.5-0.5-9-1.1-13.5-1.4c-3.4-0.3-6.2-1.3-8.1-4.1
		c-1.2-7.3,0.7-10.4,7.5-11.7c2.9-0.5,5.9-0.8,8.8-0.4c5.5,0.9,10.9,2.3,15.5,3.4c4.7-4.4,9.3-8.7,14.5-13.6
		c-3.8-2-6.9-4.4-10.4-5.6c-10.5-3.5-21.3-4.3-32.2-2.7c-6.8,1.1-13.1,3.6-18.4,8.1c-8.6,7.4-10.9,16.9-8.8,27.7
		c2,10.1,8.6,15.7,18.5,17.4c7.1,1.2,14.4,1.8,21.6,2.7c7.7,0.9,10,3.9,9,11.8c-7.8,8.2-20.1,8-38.6-0.7
		C370.7,155,365.9,160,360.6,165.5z"/>
	<path d="M193.8,180c-11.1,0-21.5,0-32.2,0c-0.5-1.2-1-2.5-1.6-4.2c-6.5,3.4-12.9,5.8-20.2,5.7c-18.1-0.2-32.6-12.9-33.2-31.1
		c-0.7-23.6-0.1-47.2-0.1-70.8c0-0.2,0.2-0.4,0.4-1.1c10.8,0,21.8,0,33.2,0c0.1,2,0.3,3.8,0.3,5.5c0,17.3,0,34.5,0,51.8
		c0,2-0.1,4.1,0.2,6.1c0.9,5.2,4.9,8.3,10.1,8.1c5.1-0.2,8.3-3.2,8.9-8.5c0.2-2,0.2-4.1,0.2-6.1c0-16.6,0-33.2,0-49.7
		c0-2.2,0-4.4,0-7.1c11.7,0,22.7,0,34.1,0C193.8,112.2,193.8,145.7,193.8,180z M111.3,83.2c-0.4,1.1-0.6,1.5-0.6,1.9
		c0,20.7-0.1,41.4,0.1,62c0,3.8,0.9,7.7,2.2,11.3c6.5,18.3,28.7,24.6,45,13c2.2-1.5,4.2-3.3,6.8-5.3c0.3,3.6,0.5,6.6,0.8,9.5
		c8.3,0,16,0,23.8,0c0-30.9,0-61.4,0-92.3c-8.2,0-16.1,0-24.6,0c0,2.5,0,4.8,0,7c0,14.8,0,29.5-0.1,44.3c0,2.9-0.2,5.9-0.8,8.8
		c-1.4,7.5-6.9,11.5-14.8,11c-7.2-0.4-12.1-5.2-12.7-12.6c-0.2-2.3-0.1-4.5-0.2-6.8c0-15.5,0-30.9-0.1-46.4c0-1.7-0.3-3.5-0.4-5.4
		C127.3,83.2,119.4,83.2,111.3,83.2z"/>
</g>
</svg>
