<?xml version="1.0" encoding="utf-8"?>
<!-- Generator: Adobe Illustrator 25.0.1, SVG Export Plug-In . SVG Version: 6.00 Build 0)  -->
<svg version="1.1" id="Layer_1" xmlns="http://www.w3.org/2000/svg" xmlns:xlink="http://www.w3.org/1999/xlink" x="0px" y="0px"
	 viewBox="0 0 801 233" style="fill: #fff; enable-background:new 0 0 801 233;" xml:space="preserve">
<g>
	<path d="M159.8,217.6c-12.6,0-24.1,0-36,0c0-45.9,0-91.4,0-137.4c11.3,0,22.4,0,34.1,0c0.2,1.1,0.5,2.3,0.8,3.5
		c4.2-1.3,8.4-2.9,12.8-3.9c21.7-5,43.7,9.4,43.3,33.6c-0.2,12.8-0.2,25.6,0,38.3c0.3,21.7-14.9,35.9-35,34.9
		c-6.5-0.3-13-1.6-20.1-2.6C159.8,194.3,159.8,205.7,159.8,217.6z M175.5,152.8c5-11.2,3.4-22.6,2.1-33.9c-0.6-4.9-4.2-6.2-8.4-6.5
		c-4.8-0.4-7.2,2.9-7.8,6.5c-1.1,6.8-2,13.8-1.3,20.6c0.5,4.5-0.5,10.7,5.5,13.3C168.6,152.8,171.6,152.8,175.5,152.8z"/>
	<path d="M608.7,177.9c-9-13.1-6.3-20.7,12-32.9c-10-8.5-11.4-19.7-10.2-32c1.7-18,16.6-29.5,30.4-31.7c7.7-1.3,15.8-0.5,23.7-0.4
		c6.9,0.2,13.9,1,20.8,1.2c6.8,0.2,13.5,0,21.3,0c-1.1,5.4-2,10.3-3.1,15.6c-5,1.3-10,2.6-15.2,4c0,5.7,0.5,11.5-0.1,17.1
		c-1.9,19.2-14.7,31.5-34,33c-4.9,0.4-9.9,0-14.8,0.2c-2.1,0.1-4.5,0.6-6.2,1.8c-1.5,1.1-3,3.4-3,5.2c0,1.3,2.2,3.5,3.8,3.9
		c5.4,1.4,10.9,2.1,16.4,3.1c2.6,0.4,5.1,0.7,7.7,1.1c23.1,3.8,29.2,17.8,22,39.9c-3.3,10.1-11.2,16.5-20.8,20.2
		c-18,6.9-36.6,7.6-55.2,2.5c-13.9-3.9-20-12.9-19.4-26.4c0.3-7.6,4-13.3,10.1-17.4C599.2,183,603.9,180.7,608.7,177.9z M655,194.2
		c-8-5.8-25.8-7.8-34.6-3.8c-3,1.4-6,3.4-7.9,6c-4.4,5.6-2.2,12.9,4.6,14.9c10.7,3.1,21.3,2.4,31.4-2.5
		C654.5,205.8,656.2,201.4,655,194.2z M661.9,110c0-3.5,0.4-8.6-5.3-10.7c-5.1-1.9-10.9,0.4-14.4,5.9c-4.3,6.6-5.5,14.1-4.2,21.8
		c0.9,5.3,5.7,7.9,10.8,6.3C657.1,130.6,661.4,123.3,661.9,110z"/>
	<path d="M0.5,47.7h38.1c0,2.2,0,4.3,0,6.4c0,25.4-0.2,50.7,0.2,76.1c0,3.5,0.7,7,1.4,10.6c1.1,5.6,5.5,10.1,11.2,10.9
		c0.3,0,0.5,0.1,0.8,0.1c10.7,0.7,16.2-4.7,16.3-15.4c0.1-11.2,0-22.4,0-34.1c6.2-5,12.5-10.2,19-15.4c6.8,5.5,13.1,10.7,19.6,16
		c0,12.6,0.5,25.2-0.1,37.8c-1,19.2-13.6,38.6-37.5,44.6c-22.7,5.7-47.2,0-60.9-20.5c-5.3-7.9-8.1-16.8-8.2-26
		c-0.4-29.3-0.1-58.7,0-88C0.1,49.7,0.3,48.9,0.5,47.7z"/>
	<path d="M357.2,186.6c-11.3,0-21.4,0-32.2,0c-6.2-16.7-12.5-33.6-19-50.9c-3.4,0-6.7,0-10.4,0c-3.7,16.9-7.3,33.7-11,50.8
		c-9.9,0-19.4,0-29.6,0c9.6-45.7,19.2-91,28.6-135.5c16.1,0,31.4-1.1,46.3,0.2c27.7,2.6,36,23.6,31.5,46.7
		c-2.8,14.3-11.4,24.3-24.9,29.9c-0.9,0.4-1.8,0.8-2.6,1.3c-0.1,0.1-0.2,0.3-0.5,0.9C341.2,148.4,349,167.1,357.2,186.6z
		 M301.1,110.9c6.9-0.9,12.8-1.2,18.4-2.7c9.5-2.6,14.4-11.1,12.9-21.3c-1.3-9.2-6.1-12.7-17.5-12.8c-2,0-3.9,0-6.7,0
		C305.9,85.9,303.7,97.5,301.1,110.9z"/>
	<path d="M450.1,94.6c1.8-4.3,3.5-8.1,5.1-12.1c7.3,0,14.4,0,22.3,0c-7.3,34.8-14.5,69.3-21.8,104.1c-7.6,0-14.7,0-22.3,0
		c0.2-3.7,0.4-7.1,0.6-12.2c-8.4,9.5-17.3,14.4-28.6,14.4c-13.5,0.1-23-5.9-27.6-18.6c-8.6-23.7,0.3-65.9,23.5-82.7
		C418.4,75.2,436.5,77.5,450.1,94.6z M433.2,104.3c-7.5-2-13.4,0.9-17.5,7c-8.5,12.6-12,26.8-10.9,41.9c0.4,4.9,2.3,9.6,7.5,11.3
		c5.3,1.7,9.8-0.3,13.6-4c10.9-10.5,14.1-24,15.2-38.5C441.6,114.9,439.5,109.1,433.2,104.3z"/>
	<path d="M572.7,186.6c-10,0-19.3,0-29.5,0c3-13.8,5.9-27.1,8.7-40.5c2-9.9,4.1-19.9,5.6-29.9c0.7-4.3,0.4-9.2-4.3-11.5
		c-4.9-2.3-9.7-1.4-13.9,2.2c-8.6,7.3-12.4,17.4-15.1,27.9c-2.2,8.5-3.8,17.1-5.6,25.7c-1.8,8.6-3.6,17.2-5.4,26.1
		c-9.7,0-19.2,0-29.6,0c7.5-34.9,14.9-69.5,22.4-104.2c7.7,0,14.8,0,22.3,0c-0.5,5.6-0.9,10.9-1.5,17.1c4.6-4.7,8.2-9.3,12.7-12.8
		c17.4-13.7,42.3-6.6,46.3,13.5c1.4,6.9,1.3,14.5,0.1,21.4C582,143,577.2,164.4,572.7,186.6z"/>
	<path d="M736.6,145.7c-1.6,13.2,4.6,20.6,16.8,20.6c5.3,0,10.7-0.7,15.9-1.9c5.2-1.2,10.1-3.4,15.6-5.4c0,7.4,0,14.4,0,21.9
		c-9.7,5.7-20.7,7.7-31.9,7.8c-8,0.1-16.4-0.9-24-3.3c-11.1-3.5-18.8-11.8-20.7-23.5c-4.2-25,0.2-48,18.5-66.9
		c13.3-13.7,38.8-19.1,56.6-11.9c9.1,3.7,15.6,10,17,19.9c1.8,12.3-1.6,23-11.8,30.8c-12.2,9.3-26.6,10.8-41.2,11.5
		C744,145.3,740.4,145.5,736.6,145.7z M740.1,125.8c5-0.3,10.2,0.2,14.7-1.2c5.5-1.7,11.2-4.4,15.3-8.2c2.2-2.1,2.6-7.9,1.4-11.3
		c-0.7-2-5.7-3.6-8.8-3.6C752.7,101.4,742.4,112.6,740.1,125.8z"/>
	<path d="M87.1,0c9.9,17.1,19.2,33.1,28.9,49.7c-3.5,0.2-5.9,0.4-9,0.6c0,15.3,0,30.7,0,47.9c-7.2-5.9-13.1-10.7-19.5-15.9
		c-5.7,4.6-11.8,9.5-18.8,15.3c0-16.4,0-31.7,0-47.3c-3.7-0.2-6.6-0.4-10.5-0.7C67.9,33,77.2,17,87.1,0z"/>
</g>
</svg>
